<svg xmlns="http://www.w3.org/2000/svg" xmlns:xlink="http://www.w3.org/1999/xlink" xmlns:lucid="lucid" width="740" height="879.5"><g transform="translate(-60 -80)" lucid:page-tab-id="0_0"><path d="M80 505.5c0-3.3 2.7-6 6-6h688c3.3 0 6 2.7 6 6v428c0 3.3-2.7 6-6 6H86c-3.3 0-6-2.7-6-6z" stroke="#3a414a" fill="#edf5ff"/><use xlink:href="#a" transform="matrix(1,0,0,1,92,511.4988189414522) translate(0 21.333333333333325)"/><use xlink:href="#b" transform="matrix(1,0,0,1,92,511.4988189414522) translate(103.62962962962959 21.333333333333325)"/><path d="M720 811.5c0 15.46-71.63 28-160 28s-160-12.54-160-28v-224c0-15.47 71.63-28 160-28s160 12.53 160 28z" stroke="#3a414a" fill="#c3f7c8"/><path d="M720 587.5c0 15.46-71.63 28-160 28s-160-12.54-160-28" stroke="#3a414a" fill="none"/><use xlink:href="#c" transform="matrix(1,0,0,1,405,620.4988189414522) translate(80.18518518518522 113.60416666666666)"/><use xlink:href="#d" transform="matrix(1,0,0,1,405,620.4988189414522) translate(179.9074074074074 113.60416666666666)"/><path d="M200 106c0-3.3 2.7-6 6-6h488c3.3 0 6 2.7 6 6v288c0 3.3-2.7 6-6 6H206c-3.3 0-6-2.7-6-6z" stroke="#3a414a" fill="#fc9432"/><use xlink:href="#e" transform="matrix(1,0,0,1,212,112) translate(0 24.888888888888893)"/><path d="M300 166c0-3.3 2.7-6 6-6h388c3.3 0 6 2.7 6 6v228c0 3.3-2.7 6-6 6H306c-3.3 0-6-2.7-6-6z" stroke="#3a414a" fill="#ffdda6"/><use xlink:href="#f" transform="matrix(1,0,0,1,312,172) translate(0 24.888888888888893)"/><path d="M608 220c39.76 0 72 35.82 72 80s-32.24 80-72 80H392c-39.76 0-72-35.82-72-80s32.24-80 72-80z" stroke="#3a414a" fill="#fff7a1"/><use xlink:href="#c" transform="matrix(1,0,0,1,325,225) translate(55.694444444444514 82.91666666666666)"/><use xlink:href="#g" transform="matrix(1,0,0,1,325,225) translate(155.41666666666669 82.91666666666666)"/><path d="M500.03 382l.07 3.3.3 4.62.46 4.48.65 4.37.83 4.3 1 4.26 1.2 4.26 1.38 4.3 1.65 4.4 1.9 4.53 2.26 4.78 2.7 5.17 3.34 5.76 4.37 6.88 6.86 9.8 25 34.14 4.33 6.8 3.28 5.7 2.66 5.1 2.22 4.7 1.88 4.48 1.6 4.3 1.38 4.23 1.17 4.18.96 4.17.73 3.8" stroke="#3a414a" stroke-width="3" stroke-linejoin="round" fill="none"/><path d="M501.53 382l-3 .07-.03-1.57h3z" stroke="#3a414a" stroke-width=".05" fill="#3a414a"/><path d="M575.35 554.48l-5.68-13.88 9.25-.7z" stroke="#3a414a" stroke-width="3" fill="#3a414a"/><defs><path fill="#3a414a" d="M30-248c87 1 191-15 191 75 0 78-77 80-158 76V0H30v-248zm33 125c57 0 124 11 124-50 0-59-68-47-124-48v98" id="h"/><path fill="#3a414a" d="M114-163C36-179 61-72 57 0H25l-1-190h30c1 12-1 29 2 39 6-27 23-49 58-41v29" id="i"/><path fill="#3a414a" d="M100-194c62-1 85 37 85 99 1 63-27 99-86 99S16-35 15-95c0-66 28-99 85-99zM99-20c44 1 53-31 53-75 0-43-8-75-51-75s-53 32-53 75 10 74 51 75" id="j"/><path fill="#3a414a" d="M96-169c-40 0-48 33-48 73s9 75 48 75c24 0 41-14 43-38l32 2c-6 37-31 61-74 61-59 0-76-41-82-99-10-93 101-131 147-64 4 7 5 14 7 22l-32 3c-4-21-16-35-41-35" id="k"/><path fill="#3a414a" d="M100-194c63 0 86 42 84 106H49c0 40 14 67 53 68 26 1 43-12 49-29l28 8c-11 28-37 45-77 45C44 4 14-33 15-96c1-61 26-98 85-98zm52 81c6-60-76-77-97-28-3 7-6 17-6 28h103" id="l"/><path fill="#3a414a" d="M135-143c-3-34-86-38-87 0 15 53 115 12 119 90S17 21 10-45l28-5c4 36 97 45 98 0-10-56-113-15-118-90-4-57 82-63 122-42 12 7 21 19 24 35" id="m"/><g id="a"><use transform="matrix(0.07407407407407404,0,0,0.07407407407407404,0,0)" xlink:href="#h"/><use transform="matrix(0.07407407407407404,0,0,0.07407407407407404,17.77777777777777,0)" xlink:href="#i"/><use transform="matrix(0.07407407407407404,0,0,0.07407407407407404,26.59259259259258,0)" xlink:href="#j"/><use transform="matrix(0.07407407407407404,0,0,0.07407407407407404,41.40740740740739,0)" xlink:href="#k"/><use transform="matrix(0.07407407407407404,0,0,0.07407407407407404,54.74074074074072,0)" xlink:href="#l"/><use transform="matrix(0.07407407407407404,0,0,0.07407407407407404,69.55555555555553,0)" xlink:href="#m"/><use transform="matrix(0.07407407407407404,0,0,0.07407407407407404,82.88888888888886,0)" xlink:href="#m"/></g><path fill="#3a414a" d="M252-156c43 0 55 33 55 80 0 46-13 78-56 78-42 0-55-33-55-78 0-48 12-80 56-80zM93 0H65l162-248h28zM13-171c-1-47 13-79 56-79s55 33 55 79-13 79-55 79c-43 0-56-33-56-79zM251-17c28 0 30-29 30-59 0-31-1-60-29-60-29 0-31 29-31 60 0 29 2 59 30 59zM69-112c27 0 28-30 29-59 0-31-1-60-29-60-29 0-30 30-30 60s2 59 30 59" id="n"/><path fill="#3a414a" d="M115-194c55 1 70 41 70 98S169 2 115 4C84 4 66-9 55-30l1 105H24l-1-265h31l2 30c10-21 28-34 59-34zm-8 174c40 0 45-34 45-75s-6-73-45-74c-42 0-51 32-51 76 0 43 10 73 51 73" id="o"/><path fill="#3a414a" d="M24-231v-30h32v30H24zM24 0v-190h32V0H24" id="p"/><path fill="#3a414a" d="M85-194c31 0 48 13 60 33l-1-100h32l1 261h-30c-2-10 0-23-3-31C134-8 116 4 85 4 32 4 16-35 15-94c0-66 23-100 70-100zm9 24c-40 0-46 34-46 75 0 40 6 74 45 74 42 0 51-32 51-76 0-42-9-74-50-73" id="q"/><g id="b"><use transform="matrix(0.07407407407407404,0,0,0.07407407407407404,0,0)" xlink:href="#n"/><use transform="matrix(0.07407407407407404,0,0,0.07407407407407404,23.703703703703695,0)" xlink:href="#o"/><use transform="matrix(0.07407407407407404,0,0,0.07407407407407404,38.518518518518505,0)" xlink:href="#p"/><use transform="matrix(0.07407407407407404,0,0,0.07407407407407404,44.37037037037035,0)" xlink:href="#q"/></g><path fill="#3a414a" d="M30-248c118-7 216 8 213 122C240-48 200 0 122 0H30v-248zM63-27c89 8 146-16 146-99s-60-101-146-95v194" id="r"/><path fill="#3a414a" d="M141-36C126-15 110 5 73 4 37 3 15-17 15-53c-1-64 63-63 125-63 3-35-9-54-41-54-24 1-41 7-42 31l-33-3c5-37 33-52 76-52 45 0 72 20 72 64v82c-1 20 7 32 28 27v20c-31 9-61-2-59-35zM48-53c0 20 12 33 32 33 41-3 63-29 60-74-43 2-92-5-92 41" id="s"/><path fill="#3a414a" d="M24 0v-261h32V0H24" id="t"/><path fill="#3a414a" d="M108 0H70L1-190h34L89-25l56-165h34" id="u"/><path fill="#3a414a" d="M143 0L79-87 56-68V0H24v-261h32v163l83-92h37l-77 82L181 0h-38" id="v"/><g id="c"><use transform="matrix(0.09259259259259256,0,0,0.09259259259259256,0,0)" xlink:href="#r"/><use transform="matrix(0.09259259259259256,0,0,0.09259259259259256,23.981481481481474,0)" xlink:href="#s"/><use transform="matrix(0.09259259259259256,0,0,0.09259259259259256,42.499999999999986,0)" xlink:href="#t"/><use transform="matrix(0.09259259259259256,0,0,0.09259259259259256,49.814814814814795,0)" xlink:href="#u"/><use transform="matrix(0.09259259259259256,0,0,0.09259259259259256,66.48148148148145,0)" xlink:href="#p"/><use transform="matrix(0.09259259259259256,0,0,0.09259259259259256,73.79629629629626,0)" xlink:href="#v"/></g><path fill="#3a414a" d="M137 0h-34L2-248h35l83 218 83-218h36" id="w"/><path fill="#3a414a" d="M240 0l2-218c-23 76-54 145-80 218h-23L58-218 59 0H30v-248h44l77 211c21-75 51-140 76-211h43V0h-30" id="x"/><g id="d"><use transform="matrix(0.09259259259259256,0,0,0.09259259259259256,0,0)" xlink:href="#w"/><use transform="matrix(0.09259259259259256,0,0,0.09259259259259256,22.222222222222214,0)" xlink:href="#x"/></g><path fill="#5d646f" d="M199 0l-22-63H83L61 0H9l90-248h61L250 0h-51zm-33-102l-36-108c-10 38-24 72-36 108h72" id="y"/><path fill="#5d646f" d="M24-248c93 1 206-16 204 79-1 75-69 88-152 82V0H24v-248zm52 121c47 0 100 7 100-41 0-47-54-39-100-39v80" id="z"/><path fill="#5d646f" d="M195 0l-88-114-31 24V0H24v-248h52v113l112-113h60L142-143 257 0h-62" id="A"/><g id="e"><use transform="matrix(0.08641975308641976,0,0,0.08641975308641976,0,0)" xlink:href="#y"/><use transform="matrix(0.08641975308641976,0,0,0.08641975308641976,22.38271604938272,0)" xlink:href="#z"/><use transform="matrix(0.08641975308641976,0,0,0.08641975308641976,43.12345679012346,0)" xlink:href="#A"/></g><path fill="#5d646f" d="M24 0v-54h51V0H24" id="B"/><path fill="#5d646f" d="M88-194c31-1 46 15 58 34l-1-101h50l1 261h-48c-2-10 0-23-3-31C134-8 116 4 84 4 32 4 16-41 15-95c0-56 19-97 73-99zm17 164c33 0 40-30 41-66 1-37-9-64-41-64s-38 30-39 65c0 43 13 65 39 65" id="C"/><path fill="#5d646f" d="M185-48c-13 30-37 53-82 52C43 2 14-33 14-96s30-98 90-98c62 0 83 45 84 108H66c0 31 8 55 39 56 18 0 30-7 34-22zm-45-69c5-46-57-63-70-21-2 6-4 13-4 21h74" id="D"/><path fill="#5d646f" d="M144 0l-44-69L55 0H2l70-98-66-92h53l41 62 40-62h54l-67 91 71 99h-54" id="E"/><g id="f"><use transform="matrix(0.08641975308641976,0,0,0.08641975308641976,0,0)" xlink:href="#B"/><use transform="matrix(0.08641975308641976,0,0,0.08641975308641976,8.641975308641976,0)" xlink:href="#C"/><use transform="matrix(0.08641975308641976,0,0,0.08641975308641976,27.567901234567906,0)" xlink:href="#D"/><use transform="matrix(0.08641975308641976,0,0,0.08641975308641976,44.85185185185187,0)" xlink:href="#E"/></g><path fill="#3a414a" d="M160-131c35 5 61 23 61 61C221 17 115-2 30 0v-248c76 3 177-17 177 60 0 33-19 50-47 57zm-97-11c50-1 110 9 110-42 0-47-63-36-110-37v79zm0 115c55-2 124 14 124-45 0-56-70-42-124-44v89" id="F"/><path fill="#3a414a" d="M179-190L93 31C79 59 56 82 12 73V49c39 6 53-20 64-50L1-190h34L92-34l54-156h33" id="G"/><path fill="#3a414a" d="M59-47c-2 24 18 29 38 22v24C64 9 27 4 27-40v-127H5v-23h24l9-43h21v43h35v23H59v120" id="H"/><g id="g"><use transform="matrix(0.09259259259259256,0,0,0.09259259259259256,0,0)" xlink:href="#F"/><use transform="matrix(0.09259259259259256,0,0,0.09259259259259256,22.222222222222214,0)" xlink:href="#G"/><use transform="matrix(0.09259259259259256,0,0,0.09259259259259256,38.88888888888887,0)" xlink:href="#H"/><use transform="matrix(0.09259259259259256,0,0,0.09259259259259256,48.148148148148124,0)" xlink:href="#l"/><use transform="matrix(0.09259259259259256,0,0,0.09259259259259256,66.66666666666663,0)" xlink:href="#k"/><use transform="matrix(0.09259259259259256,0,0,0.09259259259259256,83.33333333333329,0)" xlink:href="#j"/><use transform="matrix(0.09259259259259256,0,0,0.09259259259259256,101.85185185185179,0)" xlink:href="#q"/><use transform="matrix(0.09259259259259256,0,0,0.09259259259259256,120.37037037037028,0)" xlink:href="#l"/></g></defs></g></svg>