<svg xmlns="http://www.w3.org/2000/svg" xmlns:xlink="http://www.w3.org/1999/xlink" xmlns:lucid="lucid" width="1760" height="1220"><g transform="translate(-60 -60)" lucid:page-tab-id="0_0"><path d="M80 406c0-3.3 2.7-6 6-6h788c3.3 0 6 2.7 6 6v268c0 3.3-2.7 6-6 6H86c-3.3 0-6-2.7-6-6z" stroke="#3a414a" fill="#fff"/><use xlink:href="#a" transform="matrix(1,0,0,1,92,412) translate(0 141.33333333333331)"/><use xlink:href="#b" transform="matrix(1,0,0,1,92,412) translate(139.61111111111103 141.33333333333331)"/><path d="M606 80c46.4 0 84 44.77 84 100s-37.6 100-84 100H354c-46.4 0-84-44.77-84-100s37.6-100 84-100z" stroke="#3a414a" fill="#ffdda6"/><use xlink:href="#c" transform="matrix(1,0,0,1,275,85) translate(125.46296296296296 100.90277777777777)"/><use xlink:href="#d" transform="matrix(1,0,0,1,275,85) translate(191.94444444444446 100.90277777777777)"/><path d="M1526 80c46.4 0 84 44.77 84 100s-37.6 100-84 100h-252c-46.4 0-84-44.77-84-100s37.6-100 84-100z" stroke="#3a414a" fill="#ffdda6"/><use xlink:href="#c" transform="matrix(1,0,0,1,1195,85) translate(125.46296296296296 89.02777777777777)"/><use xlink:href="#e" transform="matrix(1,0,0,1,1195,85) translate(191.94444444444446 89.02777777777777)"/><use xlink:href="#f" transform="matrix(1,0,0,1,1195,85) translate(205 115.69444444444446)"/><path d="M80 986c0-3.3 2.7-6 6-6h1708c3.3 0 6 2.7 6 6v268c0 3.3-2.7 6-6 6H86c-3.3 0-6-2.7-6-6z" stroke="#3a414a" fill="#ced4db"/><use xlink:href="#g" transform="matrix(1,0,0,1,92,992) translate(643.7685185185187 136.88888888888886)"/><use xlink:href="#h" transform="matrix(1,0,0,1,92,992) translate(882.0030864197531 136.88888888888886)"/><path d="M480 283v91.64" stroke="#3a414a" stroke-width="5" fill="none"/><path d="M482.5 283.06h-5v-2.56h5z" stroke="#3a414a" stroke-width=".05" fill="#3a414a"/><path d="M480 391.4l-4.64-14.26h9.28z" stroke="#3a414a" stroke-width="5" fill="#3a414a"/><path d="M732 480c26.5 0 48 26.86 48 60s-21.5 60-48 60H588c-26.5 0-48-26.86-48-60s21.5-60 48-60z" stroke="#3a414a" fill="#ffe342"/><use xlink:href="#i" transform="matrix(1,0,0,1,545,485) translate(76.2037037037037 59.02777777777778)"/><path d="M479.98 399l-.38-11.8-.06-.4v-.05h-.02l-.02.07.08 1.04 1.1 6.56 2.6 9.13 3.52 8.57 4.1 7.4 4.47 6.23 4.8 5.28 5.14 4.47 5.53 3.78 6.04 3.18.46.2 2.47 1.04 2.84 1.05 3.3 1.07 3.9 1.08 4.7 1.1 5.85 1.1 7.65 1.12 11.05 1.14 64.42 4 6.07.9 4.47.84 3.48.82 2.82.78 2.32.75 1.96.73 1.68.7 1.45.68 1.26.67 1.13.65 1 .63.9.63.8.6.46.4" stroke="#3a414a" stroke-linejoin="round" fill="none"/><path d="M480.5 399.5h-1l-.02-.5 1-.03z" stroke="#3a414a" stroke-width=".05" fill="#3a414a"/><path d="M659.32 478.02l-10.2-11 8.42-3.9z" stroke="#3a414a" fill="#3a414a"/><path d="M1000 406.5c0-3.3 2.7-6 6-6h788c3.3 0 6 2.7 6 6v268c0 3.3-2.7 6-6 6h-788c-3.3 0-6-2.7-6-6z" stroke="#3a414a" fill="#fff"/><use xlink:href="#a" transform="matrix(1,0,0,1,1012,412.5) translate(0 141.33333333333331)"/><use xlink:href="#j" transform="matrix(1,0,0,1,1012,412.5) translate(139.61111111111103 141.33333333333331)"/><path d="M1400 283.5v91.64M1400 283.56V281" stroke="#3a414a" stroke-width="5" fill="none"/><path d="M1400 391.9l-4.64-14.26h9.28z" stroke="#3a414a" stroke-width="5" fill="#3a414a"/><path d="M1652 480.5c26.5 0 48 26.86 48 60s-21.5 60-48 60h-144c-26.5 0-48-26.86-48-60s21.5-60 48-60z" stroke="#3a414a" fill="#c3f7c8"/><use xlink:href="#k" transform="matrix(1,0,0,1,1465,485.5) translate(70.70987654320987 59.02777777777778)"/><path d="M1399.98 399.5l-.38-11.8-.06-.4v-.05h-.02l-.02.07.08 1.04 1.1 6.56 2.6 9.13 3.52 8.57 4.1 7.4 4.47 6.23 4.8 5.28 5.14 4.47 5.53 3.78 6.04 3.18.46.2 2.47 1.04 2.84 1.05 3.3 1.07 3.9 1.08 4.7 1.1 5.85 1.1 7.65 1.12 11.05 1.14 64.42 4 6.07.9 4.47.84 3.48.82 2.82.78 2.32.75 1.96.73 1.68.7 1.45.68 1.26.67 1.13.65 1 .63.9.63.8.6.46.4" stroke="#3a414a" stroke-linejoin="round" fill="none"/><path d="M1400.5 400h-1l-.02-.5 1-.03z" stroke="#3a414a" stroke-width=".05" fill="#3a414a"/><path d="M1579.32 478.52l-10.2-11 8.42-3.9z" stroke="#3a414a" fill="#3a414a"/><path d="M1500 726c0-3.3 2.7-6 6-6h186c3.3 0 6 2.7 6 6v130c-33.07-22.7-53.66-22.7-66.13-22.7-19.8 0-46.14 22.7-65.94 22.7-12.27 0-33.06 0-65.93-22.7z" stroke="#3a414a" fill="#ff8f8f"/><path d="M1511 738c0-3.3 2.7-6 6-6h186c3.3 0 6 2.7 6 6v130c-33.07-22.7-53.66-22.7-66.13-22.7-19.8 0-46.14 22.7-65.94 22.7-12.27 0-33.06 0-65.93-22.7z" stroke="#3a414a" fill="#ff8f8f"/><path d="M1522 750c0-3.3 2.7-6 6-6h186c3.3 0 6 2.7 6 6v130c-33.07-22.7-53.66-22.7-66.13-22.7-19.8 0-46.14 22.7-65.94 22.7-12.27 0-33.06 0-65.93-22.7z" stroke="#3a414a" fill="#ff8f8f"/><use xlink:href="#l" transform="matrix(1,0,0,1,1527,749) translate(24.48148148148148 56.77777777777778)"/><use xlink:href="#m" transform="matrix(1,0,0,1,1527,749) translate(93.49382716049382 56.77777777777778)"/><path d="M1580 601.5l.14 6.35.37 5.93.57 5.24.7 4.74.84 4.37.98 4.1 1.12 4 1.3 3.96 1.56 4.16 2.03 4.78 3.7 7.76 7.1 14.46 2.04 4.78 1.56 4.17 1.3 3.98 1.12 3.98.97 4.1.83 4.38.7 4.74.18 1.67" stroke="#3a414a" stroke-linejoin="round" fill="none"/><path d="M1580.5 601.5l-1 .02V601h1z" stroke="#3a414a" stroke-width=".05" fill="#3a414a"/><path d="M1609.9 717.88l-5.4-14 9.26-.5z" stroke="#3a414a" fill="#3a414a"/><path d="M1610 877.2v75.33" stroke="#3a414a" stroke-width="6" fill="none"/><path d="M1613 877.28h-6v-1.68l6-2.8z" stroke="#3a414a" stroke-width=".05" fill="#3a414a"/><path d="M1610 969.8l-4.64-14.27h9.28z" stroke="#3a414a" stroke-width="6" fill="#3a414a"/><path d="M659.94 603.5l-.13 6.26-.54 8.7-.86 8.27-1.17 7.86-1.43 7.53-1.7 7.28-1.98 7.07-2.24 6.9-2.5 6.75-2.82 6.68-3.13 6.65-3.48 6.65-3.88 6.72-4.35 6.84-4.9 7.05-5.57 7.35-6.45 7.8-7.62 8.45-9.35 9.53-12.3 11.54-20.04 17.2-63.02 52.06-12.3 11.54-9.36 9.53-7.62 8.46-6.45 7.8-5.58 7.33-4.9 7.04-4.34 6.84-3.88 6.72-3.48 6.65-3.13 6.65-2.8 6.68-2.52 6.76-2.24 6.9-1.97 7.05-1.7 7.27-1.43 7.54-1.07 7.2" stroke="#3a414a" stroke-width="6" stroke-linejoin="round" fill="none"/><path d="M662.94 603.64l-6-.12.06-3.02h6z" stroke="#3a414a" stroke-width=".05" fill="#3a414a"/><path d="M424.6 969.8l-3.7-14.52 9.24.6z" stroke="#3a414a" stroke-width="6" fill="#3a414a"/><defs><path fill="#3a414a" d="M30-248c118-7 216 8 213 122C240-48 200 0 122 0H30v-248zM63-27c89 8 146-16 146-99s-60-101-146-95v194" id="n"/><path fill="#3a414a" d="M141-36C126-15 110 5 73 4 37 3 15-17 15-53c-1-64 63-63 125-63 3-35-9-54-41-54-24 1-41 7-42 31l-33-3c5-37 33-52 76-52 45 0 72 20 72 64v82c-1 20 7 32 28 27v20c-31 9-61-2-59-35zM48-53c0 20 12 33 32 33 41-3 63-29 60-74-43 2-92-5-92 41" id="o"/><path fill="#3a414a" d="M24 0v-261h32V0H24" id="p"/><path fill="#3a414a" d="M108 0H70L1-190h34L89-25l56-165h34" id="q"/><path fill="#3a414a" d="M24-231v-30h32v30H24zM24 0v-190h32V0H24" id="r"/><path fill="#3a414a" d="M143 0L79-87 56-68V0H24v-261h32v163l83-92h37l-77 82L181 0h-38" id="s"/><g id="a"><use transform="matrix(0.12962962962962957,0,0,0.12962962962962957,0,0)" xlink:href="#n"/><use transform="matrix(0.12962962962962957,0,0,0.12962962962962957,33.574074074074055,0)" xlink:href="#o"/><use transform="matrix(0.12962962962962957,0,0,0.12962962962962957,59.49999999999997,0)" xlink:href="#p"/><use transform="matrix(0.12962962962962957,0,0,0.12962962962962957,69.7407407407407,0)" xlink:href="#q"/><use transform="matrix(0.12962962962962957,0,0,0.12962962962962957,93.07407407407402,0)" xlink:href="#r"/><use transform="matrix(0.12962962962962957,0,0,0.12962962962962957,103.31481481481475,0)" xlink:href="#s"/></g><path fill="#3a414a" d="M33 0v-248h34V0H33" id="t"/><path fill="#3a414a" d="M117-194c89-4 53 116 60 194h-32v-121c0-31-8-49-39-48C34-167 62-67 57 0H25l-1-190h30c1 10-1 24 2 32 11-22 29-35 61-36" id="u"/><path fill="#3a414a" d="M59-47c-2 24 18 29 38 22v24C64 9 27 4 27-40v-127H5v-23h24l9-43h21v43h35v23H59v120" id="v"/><path fill="#3a414a" d="M100-194c63 0 86 42 84 106H49c0 40 14 67 53 68 26 1 43-12 49-29l28 8c-11 28-37 45-77 45C44 4 14-33 15-96c1-61 26-98 85-98zm52 81c6-60-76-77-97-28-3 7-6 17-6 28h103" id="w"/><path fill="#3a414a" d="M114-163C36-179 61-72 57 0H25l-1-190h30c1 12-1 29 2 39 6-27 23-49 58-41v29" id="x"/><path fill="#3a414a" d="M115-194c55 1 70 41 70 98S169 2 115 4C84 4 66-9 55-30l1 105H24l-1-265h31l2 30c10-21 28-34 59-34zm-8 174c40 0 45-34 45-75s-6-73-45-74c-42 0-51 32-51 76 0 43 10 73 51 73" id="y"/><g id="b"><use transform="matrix(0.12962962962962957,0,0,0.12962962962962957,0,0)" xlink:href="#t"/><use transform="matrix(0.12962962962962957,0,0,0.12962962962962957,12.962962962962957,0)" xlink:href="#u"/><use transform="matrix(0.12962962962962957,0,0,0.12962962962962957,38.88888888888887,0)" xlink:href="#v"/><use transform="matrix(0.12962962962962957,0,0,0.12962962962962957,51.851851851851826,0)" xlink:href="#w"/><use transform="matrix(0.12962962962962957,0,0,0.12962962962962957,77.77777777777774,0)" xlink:href="#x"/><use transform="matrix(0.12962962962962957,0,0,0.12962962962962957,93.20370370370367,0)" xlink:href="#y"/><use transform="matrix(0.12962962962962957,0,0,0.12962962962962957,119.12962962962958,0)" xlink:href="#x"/><use transform="matrix(0.12962962962962957,0,0,0.12962962962962957,134.5555555555555,0)" xlink:href="#w"/><use transform="matrix(0.12962962962962957,0,0,0.12962962962962957,160.4814814814814,0)" xlink:href="#v"/><use transform="matrix(0.12962962962962957,0,0,0.12962962962962957,173.44444444444437,0)" xlink:href="#w"/><use transform="matrix(0.12962962962962957,0,0,0.12962962962962957,199.3703703703703,0)" xlink:href="#x"/></g><g id="c"><use transform="matrix(0.06172839506172839,0,0,0.06172839506172839,0,0)" xlink:href="#n"/><use transform="matrix(0.06172839506172839,0,0,0.06172839506172839,15.987654320987653,0)" xlink:href="#o"/><use transform="matrix(0.06172839506172839,0,0,0.06172839506172839,28.333333333333332,0)" xlink:href="#p"/><use transform="matrix(0.06172839506172839,0,0,0.06172839506172839,33.20987654320987,0)" xlink:href="#q"/><use transform="matrix(0.06172839506172839,0,0,0.06172839506172839,44.32098765432099,0)" xlink:href="#r"/><use transform="matrix(0.06172839506172839,0,0,0.06172839506172839,49.19753086419753,0)" xlink:href="#s"/></g><path fill="#3a414a" d="M160-131c35 5 61 23 61 61C221 17 115-2 30 0v-248c76 3 177-17 177 60 0 33-19 50-47 57zm-97-11c50-1 110 9 110-42 0-47-63-36-110-37v79zm0 115c55-2 124 14 124-45 0-56-70-42-124-44v89" id="z"/><path fill="#3a414a" d="M179-190L93 31C79 59 56 82 12 73V49c39 6 53-20 64-50L1-190h34L92-34l54-156h33" id="A"/><path fill="#3a414a" d="M96-169c-40 0-48 33-48 73s9 75 48 75c24 0 41-14 43-38l32 2c-6 37-31 61-74 61-59 0-76-41-82-99-10-93 101-131 147-64 4 7 5 14 7 22l-32 3c-4-21-16-35-41-35" id="B"/><path fill="#3a414a" d="M100-194c62-1 85 37 85 99 1 63-27 99-86 99S16-35 15-95c0-66 28-99 85-99zM99-20c44 1 53-31 53-75 0-43-8-75-51-75s-53 32-53 75 10 74 51 75" id="C"/><path fill="#3a414a" d="M85-194c31 0 48 13 60 33l-1-100h32l1 261h-30c-2-10 0-23-3-31C134-8 116 4 85 4 32 4 16-35 15-94c0-66 23-100 70-100zm9 24c-40 0-46 34-46 75 0 40 6 74 45 74 42 0 51-32 51-76 0-42-9-74-50-73" id="D"/><g id="d"><use transform="matrix(0.06172839506172839,0,0,0.06172839506172839,0,0)" xlink:href="#z"/><use transform="matrix(0.06172839506172839,0,0,0.06172839506172839,14.814814814814813,0)" xlink:href="#A"/><use transform="matrix(0.06172839506172839,0,0,0.06172839506172839,25.925925925925924,0)" xlink:href="#v"/><use transform="matrix(0.06172839506172839,0,0,0.06172839506172839,32.098765432098766,0)" xlink:href="#w"/><use transform="matrix(0.06172839506172839,0,0,0.06172839506172839,44.44444444444444,0)" xlink:href="#B"/><use transform="matrix(0.06172839506172839,0,0,0.06172839506172839,55.55555555555556,0)" xlink:href="#C"/><use transform="matrix(0.06172839506172839,0,0,0.06172839506172839,67.90123456790124,0)" xlink:href="#D"/><use transform="matrix(0.06172839506172839,0,0,0.06172839506172839,80.24691358024693,0)" xlink:href="#w"/></g><g id="e"><use transform="matrix(0.06172839506172839,0,0,0.06172839506172839,0,0)" xlink:href="#z"/><use transform="matrix(0.06172839506172839,0,0,0.06172839506172839,14.814814814814813,0)" xlink:href="#A"/><use transform="matrix(0.06172839506172839,0,0,0.06172839506172839,25.925925925925924,0)" xlink:href="#v"/><use transform="matrix(0.06172839506172839,0,0,0.06172839506172839,32.098765432098766,0)" xlink:href="#w"/><use transform="matrix(0.06172839506172839,0,0,0.06172839506172839,44.44444444444444,0)" xlink:href="#B"/><use transform="matrix(0.06172839506172839,0,0,0.06172839506172839,55.55555555555556,0)" xlink:href="#C"/><use transform="matrix(0.06172839506172839,0,0,0.06172839506172839,67.90123456790124,0)" xlink:href="#D"/><use transform="matrix(0.06172839506172839,0,0,0.06172839506172839,80.24691358024693,0)" xlink:href="#w"/></g><path fill="#3a414a" d="M140-251c81 0 123 46 123 126C263-46 219 4 140 4 59 4 17-45 17-125s42-126 123-126zm0 227c63 0 89-41 89-101s-29-99-89-99c-61 0-89 39-89 99S79-25 140-24" id="E"/><path fill="#3a414a" d="M177-190C167-65 218 103 67 71c-23-6-38-20-44-43l32-5c15 47 100 32 89-28v-30C133-14 115 1 83 1 29 1 15-40 15-95c0-56 16-97 71-98 29-1 48 16 59 35 1-10 0-23 2-32h30zM94-22c36 0 50-32 50-73 0-42-14-75-50-75-39 0-46 34-46 75s6 73 46 73" id="F"/><g id="g"><use transform="matrix(0.1419753086419752,0,0,0.1419753086419752,0,0)" xlink:href="#E"/><use transform="matrix(0.1419753086419752,0,0,0.1419753086419752,39.75308641975305,0)" xlink:href="#y"/><use transform="matrix(0.1419753086419752,0,0,0.1419753086419752,68.1481481481481,0)" xlink:href="#w"/><use transform="matrix(0.1419753086419752,0,0,0.1419753086419752,96.54320987654313,0)" xlink:href="#x"/><use transform="matrix(0.1419753086419752,0,0,0.1419753086419752,113.43827160493818,0)" xlink:href="#o"/><use transform="matrix(0.1419753086419752,0,0,0.1419753086419752,141.83333333333323,0)" xlink:href="#v"/><use transform="matrix(0.1419753086419752,0,0,0.1419753086419752,156.03086419753075,0)" xlink:href="#r"/><use transform="matrix(0.1419753086419752,0,0,0.1419753086419752,167.2469135802468,0)" xlink:href="#u"/><use transform="matrix(0.1419753086419752,0,0,0.1419753086419752,195.64197530864183,0)" xlink:href="#F"/></g><path fill="#3a414a" d="M185-189c-5-48-123-54-124 2 14 75 158 14 163 119 3 78-121 87-175 55-17-10-28-26-33-46l33-7c5 56 141 63 141-1 0-78-155-14-162-118-5-82 145-84 179-34 5 7 8 16 11 25" id="G"/><path fill="#3a414a" d="M135-143c-3-34-86-38-87 0 15 53 115 12 119 90S17 21 10-45l28-5c4 36 97 45 98 0-10-56-113-15-118-90-4-57 82-63 122-42 12 7 21 19 24 35" id="H"/><path fill="#3a414a" d="M210-169c-67 3-38 105-44 169h-31v-121c0-29-5-50-35-48C34-165 62-65 56 0H25l-1-190h30c1 10-1 24 2 32 10-44 99-50 107 0 11-21 27-35 58-36 85-2 47 119 55 194h-31v-121c0-29-5-49-35-48" id="I"/><g id="h"><use transform="matrix(0.1419753086419752,0,0,0.1419753086419752,0,0)" xlink:href="#G"/><use transform="matrix(0.1419753086419752,0,0,0.1419753086419752,34.07407407407405,0)" xlink:href="#A"/><use transform="matrix(0.1419753086419752,0,0,0.1419753086419752,59.62962962962958,0)" xlink:href="#H"/><use transform="matrix(0.1419753086419752,0,0,0.1419753086419752,85.18518518518512,0)" xlink:href="#v"/><use transform="matrix(0.1419753086419752,0,0,0.1419753086419752,99.38271604938264,0)" xlink:href="#w"/><use transform="matrix(0.1419753086419752,0,0,0.1419753086419752,127.77777777777767,0)" xlink:href="#I"/></g><path fill="#3a414a" d="M197 0v-115H63V0H30v-248h33v105h134v-105h34V0h-34" id="J"/><g id="i"><use transform="matrix(0.06172839506172839,0,0,0.06172839506172839,0,0)" xlink:href="#J"/><use transform="matrix(0.06172839506172839,0,0,0.06172839506172839,15.987654320987653,0)" xlink:href="#o"/><use transform="matrix(0.06172839506172839,0,0,0.06172839506172839,28.333333333333332,0)" xlink:href="#u"/><use transform="matrix(0.06172839506172839,0,0,0.06172839506172839,40.67901234567901,0)" xlink:href="#D"/><use transform="matrix(0.06172839506172839,0,0,0.06172839506172839,53.02469135802469,0)" xlink:href="#p"/><use transform="matrix(0.06172839506172839,0,0,0.06172839506172839,57.901234567901234,0)" xlink:href="#w"/><use transform="matrix(0.06172839506172839,0,0,0.06172839506172839,70.24691358024691,0)" xlink:href="#x"/></g><path fill="#3a414a" d="M153-248C145-148 188 4 80 4 36 3 13-21 6-62l32-5c4 25 16 42 43 43 27 0 39-20 39-49v-147H72v-28h81" id="K"/><path fill="#3a414a" d="M127-220V0H93v-220H8v-28h204v28h-85" id="L"/><g id="j"><use transform="matrix(0.12962962962962957,0,0,0.12962962962962957,0,0)" xlink:href="#K"/><use transform="matrix(0.12962962962962957,0,0,0.12962962962962957,23.33333333333332,0)" xlink:href="#t"/><use transform="matrix(0.12962962962962957,0,0,0.12962962962962957,36.296296296296276,0)" xlink:href="#L"/></g><path fill="#3a414a" d="M212-179c-10-28-35-45-73-45-59 0-87 40-87 99 0 60 29 101 89 101 43 0 62-24 78-52l27 14C228-24 195 4 139 4 59 4 22-46 18-125c-6-104 99-153 187-111 19 9 31 26 39 46" id="M"/><g id="k"><use transform="matrix(0.06172839506172839,0,0,0.06172839506172839,0,0)" xlink:href="#M"/><use transform="matrix(0.06172839506172839,0,0,0.06172839506172839,15.987654320987653,0)" xlink:href="#C"/><use transform="matrix(0.06172839506172839,0,0,0.06172839506172839,28.333333333333332,0)" xlink:href="#I"/><use transform="matrix(0.06172839506172839,0,0,0.06172839506172839,46.79012345679012,0)" xlink:href="#y"/><use transform="matrix(0.06172839506172839,0,0,0.06172839506172839,59.1358024691358,0)" xlink:href="#r"/><use transform="matrix(0.06172839506172839,0,0,0.06172839506172839,64.01234567901234,0)" xlink:href="#p"/><use transform="matrix(0.06172839506172839,0,0,0.06172839506172839,68.88888888888889,0)" xlink:href="#w"/><use transform="matrix(0.06172839506172839,0,0,0.06172839506172839,81.23456790123457,0)" xlink:href="#x"/></g><path fill="#3a414a" d="M190 0L58-211 59 0H30v-248h39L202-35l-2-213h31V0h-41" id="N"/><g id="l"><use transform="matrix(0.06172839506172839,0,0,0.06172839506172839,0,0)" xlink:href="#N"/><use transform="matrix(0.06172839506172839,0,0,0.06172839506172839,15.987654320987653,0)" xlink:href="#o"/><use transform="matrix(0.06172839506172839,0,0,0.06172839506172839,28.333333333333332,0)" xlink:href="#v"/><use transform="matrix(0.06172839506172839,0,0,0.06172839506172839,34.50617283950617,0)" xlink:href="#r"/><use transform="matrix(0.06172839506172839,0,0,0.06172839506172839,39.382716049382715,0)" xlink:href="#q"/><use transform="matrix(0.06172839506172839,0,0,0.06172839506172839,50.49382716049382,0)" xlink:href="#w"/></g><g id="m"><use transform="matrix(0.06172839506172839,0,0,0.06172839506172839,0,0)" xlink:href="#M"/><use transform="matrix(0.06172839506172839,0,0,0.06172839506172839,15.987654320987653,0)" xlink:href="#C"/><use transform="matrix(0.06172839506172839,0,0,0.06172839506172839,28.333333333333332,0)" xlink:href="#D"/><use transform="matrix(0.06172839506172839,0,0,0.06172839506172839,40.67901234567901,0)" xlink:href="#w"/></g></defs></g></svg>